<svg xmlns="http://www.w3.org/2000/svg" width="31" height="31" fill="none" viewBox="0 0 31 31"><g fill="#1A2755" clip-path="url(#clip0_407_3089)"><path d="M9.053 25.468a1.07 1.07 0 1 1-2.138 0 1.07 1.07 0 0 1 2.138 0ZM12.261 22.26a1.07 1.07 0 1 1-2.139 0 1.07 1.07 0 0 1 2.14 0ZM20.817 26.538a1.07 1.07 0 1 1-2.139 0 1.07 1.07 0 0 1 2.139 0ZM24.025 23.33a1.07 1.07 0 1 1-2.139 0 1.07 1.07 0 0 1 2.14 0Z"/><path d="m28.602 21.19-7.785-6.898V6.218h1.07a1.068 1.068 0 0 0 1.069-1.07V1.942a1.067 1.067 0 0 0-1.07-1.07H9.053a1.07 1.07 0 0 0-1.07 1.07v3.208a1.07 1.07 0 0 0 1.07 1.07h1.07v8.073l-7.786 6.899a5.497 5.497 0 0 0 3.66 9.625h18.95a5.497 5.497 0 0 0 3.655-9.625ZM10.122 3.01h10.695v1.07H10.122V3.01Zm1.776 12.566a1.07 1.07 0 0 0 .363-.803V6.218h6.417v8.555a1.07 1.07 0 0 0 .363.803l2.706 2.406H9.192l2.706-2.406Zm13.047 13.1H5.997a3.358 3.358 0 0 1-2.234-5.87l3.023-2.685h17.367l3.027 2.685a3.357 3.357 0 0 1-2.235 5.87Z"/></g><defs><clipPath id="clip0_407_3089"><path fill="#fff" d="M.47.871h30v29.944h-30z"/></clipPath></defs></svg>