<svg xmlns="http://www.w3.org/2000/svg" width="30" height="30" fill="none" viewBox="0 0 30 30"><g fill="#1A2755" clip-path="url(#clip0_407_3105)"><path d="m7.168 19.736 3.095 3.095a.938.938 0 0 1-1.326 1.327l-3.095-3.095a.947.947 0 0 1 1.025-1.54.861.861 0 0 1 .301.213ZM7.831 13.452l8.716 8.716a.936.936 0 0 1-.304 1.53.939.939 0 0 1-1.022-.203l-8.716-8.748a.948.948 0 0 1 .663-1.608c.249.032.481.142.663.316v-.003ZM23.337 22.421a.95.95 0 0 1-1.31.875.907.907 0 0 1-.303-.21L6.882 8.244a.909.909 0 0 1-.282-.663c0-.508.41-.916.947-.916.282 0 .508.126.695.316l14.747 14.745a.839.839 0 0 1 .348.695ZM23.495 16.547a.916.916 0 0 1-1.327 0l-8.716-8.716a.939.939 0 0 1 1.327-1.326l8.716 8.716c.379.379.379.979 0 1.326ZM22.831 10.263l-3.094-3.095a.937.937 0 1 1 1.326-1.326l3.095 3.095a.914.914 0 0 1 0 1.326c-.38.347-.98.347-1.327 0Z"/><path d="M30 20.62a.908.908 0 0 1-.282.664l-2.147 2.147 2.147 2.148a.913.913 0 0 1 0 1.326l-2.813 2.813a.915.915 0 0 1-1.326 0l-2.148-2.15-2.147 2.15a.915.915 0 0 1-1.326 0l-2.148-2.15-2.147 2.15a.915.915 0 0 1-1.327 0l-2.147-2.15-2.147 2.15c-.348.347-.979.347-1.327 0l-2.146-2.15-2.148 2.15a.915.915 0 0 1-1.326 0l-2.81-2.813a.915.915 0 0 1 0-1.326l2.147-2.148-2.148-2.147a.916.916 0 0 1 0-1.326l2.148-2.148-2.148-2.147a.915.915 0 0 1 0-1.327l2.148-2.147-2.148-2.147a.916.916 0 0 1 0-1.326l2.148-2.148L.284 4.421a.916.916 0 0 1 0-1.326L3.094.28a.916.916 0 0 1 1.327 0L6.57 2.428 8.715.281a.916.916 0 0 1 1.327 0l2.148 2.147L14.336.281c.348-.347.98-.347 1.327 0l2.147 2.147L19.958.281a.915.915 0 0 1 1.326 0l2.148 2.147L25.578.281c.347-.347.979-.347 1.326 0l2.813 2.814a.914.914 0 0 1 0 1.326l-2.147 2.147 2.147 2.148a.914.914 0 0 1 0 1.326l-2.147 2.147 2.147 2.147a.913.913 0 0 1 0 1.327l-2.147 2.147 2.147 2.148a.906.906 0 0 1 .282.663Zm-4.39-2.147a.915.915 0 0 1 0-1.326L27.758 15l-2.148-2.147a.915.915 0 0 1 0-1.326l2.148-2.148-2.148-2.147a.915.915 0 0 1 0-1.327l2.148-2.147-1.484-1.484-2.148 2.147a.917.917 0 0 1-1.326 0l-2.148-2.147-2.178 2.115a.917.917 0 0 1-1.327 0L15 2.24 12.852 4.39a.915.915 0 0 1-1.326 0L9.379 2.24 7.232 4.39a.916.916 0 0 1-1.327 0L3.757 2.24 2.273 3.726l2.148 2.147a.916.916 0 0 1 0 1.326L2.273 9.347l2.148 2.147a.915.915 0 0 1 0 1.327L2.24 15l2.148 2.147a.915.915 0 0 1 0 1.326l-2.147 2.148 2.147 2.147a.916.916 0 0 1 0 1.327l-2.147 2.147 1.484 1.484 2.147-2.147c.348-.348.98-.348 1.327 0l2.147 2.147 2.147-2.147a.917.917 0 0 1 1.326 0L15 27.758l2.147-2.148a.917.917 0 0 1 1.327 0l2.147 2.148 2.147-2.148a.916.916 0 0 1 1.327 0l2.146 2.148 1.485-1.484-2.147-2.148a.916.916 0 0 1 0-1.326l2.147-2.148-2.116-2.179Z"/></g><defs><clipPath id="clip0_407_3105"><path fill="#fff" d="M0 30h30V0H0z"/></clipPath></defs></svg>