<svg xmlns="http://www.w3.org/2000/svg" width="31" height="29" fill="none" viewBox="0 0 31 29"><path fill="#1A2755" d="M16.852 25.25v2.683a.883.883 0 0 1-1.765 0V25.25a10.58 10.58 0 0 1-7.993-4.775.882.882 0 1 1 1.478-.964 8.826 8.826 0 0 0 14.794 0 .884.884 0 0 1 1.479-.027.881.881 0 0 1 0 .99 10.578 10.578 0 0 1-7.994 4.776Zm-.883-3.052a7.502 7.502 0 0 1-6.837-4.412h-3.31A4.853 4.853 0 0 1 5.381 8.1a4.857 4.857 0 0 1 6.014-4.735 4.855 4.855 0 0 1 9.149 0 4.858 4.858 0 0 1 6.014 4.711c2.473.243 4.411 2.322 4.411 4.854a4.853 4.853 0 0 1-4.853 4.852h-3.31a7.503 7.503 0 0 1-6.837 4.416Zm5.41-5.589a.882.882 0 0 1 .832-.588h3.905a3.089 3.089 0 1 0-.427-6.148.882.882 0 0 1-.98-1.075 3.091 3.091 0 0 0-4.397-3.476.882.882 0 0 1-1.275-.687 3.09 3.09 0 0 0-6.136 0 .882.882 0 0 1-1.275.687 3.09 3.09 0 0 0-4.397 3.474.882.882 0 0 1-.98 1.075 3.088 3.088 0 1 0-.428 6.148h3.907a.882.882 0 0 1 .832.588 5.738 5.738 0 0 0 10.818 0v.002Z"/></svg>