<svg xmlns="http://www.w3.org/2000/svg" width="31" height="25" fill="none" viewBox="0 0 31 25"><g clip-path="url(#clip0_407_3123)"><path fill="#1A2755" fill-rule="evenodd" d="M.885 12a1.15 1.15 0 0 0-.416.885v7.692a3.462 3.462 0 0 0 3.462 3.462h23.077a3.462 3.462 0 0 0 3.461-3.458V3.654a1.153 1.153 0 0 0-1.956-.83l-.017.016a2.25 2.25 0 0 1-.146.112c-.237.163-.489.303-.753.417-.716.318-1.902.67-3.666.67-1.585 0-2.668-.626-3.368-1.248a5.148 5.148 0 0 1-.775-.862c-.081-.115-.139-.208-.176-.267a1.264 1.264 0 0 1-.035-.061l-.004-.009a1.155 1.155 0 0 0-1.646-.449L1.02 11.901c-.048.03-.093.063-.135.1Zm1.892 2.039h5.77c.423 0 .9.185 1.43.598.53.413 1.031.987 1.476 1.611.21.293.4.588.57.868H3.93c-.393 0-.783.066-1.154.197v-3.274Zm11.882 3.077-.115-.223a17.127 17.127 0 0 0-1.213-1.987c-.516-.722-1.167-1.492-1.937-2.09-.77-.6-1.733-1.085-2.848-1.085h-2.96l4.703-2.995 1.143 1.712a1.154 1.154 0 0 0 1.92-1.28l-1.114-1.67.934-.595L14.51 8.91a1.154 1.154 0 1 0 1.92-1.28l-1.31-1.966 3.11-1.978c.244.298.512.575.8.832 1.032.916 2.64 1.83 4.902 1.83 1.84 0 3.23-.327 4.23-.714v11.679c-.37-.131-.76-.198-1.153-.197h-12.35Zm-.753 2.307H3.93a1.154 1.154 0 0 0 0 2.308h23.077a1.154 1.154 0 1 0 0-2.308H13.906Z" clip-rule="evenodd"/></g><defs><clipPath id="clip0_407_3123"><path fill="#fff" d="M.47.961h30v23.077h-30z"/></clipPath></defs></svg>