<svg xmlns="http://www.w3.org/2000/svg" width="30" height="31" fill="none" viewBox="0 0 30 31"><g fill="#061F5C" clip-path="url(#clip0_407_3064)"><path d="M25.313.832H18.75a.936.936 0 0 0-.937.938 2.813 2.813 0 0 1-5.625 0 .937.937 0 0 0-.938-.938H4.688A4.694 4.694 0 0 0 0 5.52v11.25a.938.938 0 0 0 .938.937h4.687v12.187a.936.936 0 0 0 .938.937h16.875a.935.935 0 0 0 .938-.937V17.707h4.687a.939.939 0 0 0 .938-.938V5.52A4.694 4.694 0 0 0 25.312.833h.001Zm2.813 4.688v6.562h-3.75V2.708h.937a2.816 2.816 0 0 1 2.813 2.812ZM15 6.457a4.694 4.694 0 0 0 4.592-3.75H22.5v22.5h-15v-22.5h2.908A4.696 4.696 0 0 0 15 6.457ZM4.688 2.707h.937v9.375h-3.75V5.519a2.816 2.816 0 0 1 2.813-2.813v.001ZM1.876 15.832v-1.875h3.75v1.875h-3.75ZM7.5 28.957v-1.875h15v1.875h-15Zm16.875-13.125v-1.875h3.75v1.875h-3.75Z"/><path d="M17.813 10.207h1.875a.939.939 0 1 0 0-1.875h-1.875a.938.938 0 0 0 0 1.875Z"/></g><defs><clipPath id="clip0_407_3064"><path fill="#fff" d="M0 .832h30v30H0z"/></clipPath></defs></svg>