<svg xmlns="http://www.w3.org/2000/svg" width="26" height="29" fill="none" viewBox="0 0 26 29"><g clip-path="url(#clip0_407_3160)"><path fill="#1A2755" d="M25.454 22.09 24.78 13.4c-.151-1.95-1.83-3.503-3.792-3.503H8.338v-2.67a4.635 4.635 0 0 1 4.636-4.624h.009a4.635 4.635 0 0 1 4.635 4.626v.593a.935.935 0 0 0 1.869 0v-.592c0-3.578-2.918-6.493-6.505-6.493h-.009C9.387.738 6.47 3.651 6.47 7.231V9.9H4.973c-1.955 0-3.631 1.544-3.789 3.49L.482 22.07c-.223 3.243 2.426 6.477 5.655 5.947a42.094 42.094 0 0 1 13.655 0c3.232.246 5.903-2.815 5.66-5.928h.002ZM4.975 11.765H20.99a1.944 1.944 0 0 1 1.772 1.163l-9.793 4.988-9.762-4.994a1.944 1.944 0 0 1 1.768-1.157Zm.94 14.398c-2.08-.039-3.739-1.875-3.57-3.941l.596-7.339 9.6 4.912a.945.945 0 0 0 .852 0l9.628-4.904.57 7.343c.16 2.062-1.495 3.89-3.57 3.929a43.956 43.956 0 0 0-14.106 0Z"/></g><defs><clipPath id="clip0_407_3160"><path fill="#fff" d="M.47.738h25v27.336h-25z"/></clipPath></defs></svg>