<svg xmlns="http://www.w3.org/2000/svg" width="31" height="31" fill="none" viewBox="0 0 31 31"><g clip-path="url(#clip0_407_3167)"><path fill="#1A2755" d="M29.5.139h-28a1 1 0 0 0 0 2h.647v27a1 1 0 0 0 1 1h9.883a1.002 1.002 0 0 0 .948-1.316 28.608 28.608 0 0 0-3.921-7.616 2.266 2.266 0 0 1-.015-2.794A32.15 32.15 0 0 0 15.5 7.939a32.152 32.152 0 0 0 5.459 10.478 2.266 2.266 0 0 1-.015 2.794 28.608 28.608 0 0 0-3.922 7.616 1.001 1.001 0 0 0 .95 1.316h9.881a1 1 0 0 0 1-1v-27h.647a1 1 0 0 0 0-2V.14Zm-20.74 2c-.006 2.338-.445 8.598-4.613 12.565V2.14h4.614ZM4.148 23.303a15.121 15.121 0 0 1 2.568 4.837H4.147v-4.837Zm4.317-6.118a4.228 4.228 0 0 0 .038 5.281 23.678 23.678 0 0 1 3.086 5.674H8.83c-.624-1.942-2.25-6.222-4.682-7.2V17.3c6.05-4.389 6.621-12.283 6.621-15.162h3.703c-.325 6.758-3.857 12.284-6.003 15.043l-.004.004ZM22.5 22.467a4.23 4.23 0 0 0 .038-5.28c-2.15-2.762-5.678-8.29-6.005-15.044h3.703c-.005 2.879.568 10.773 6.621 15.162v3.642c-2.43.975-4.058 5.255-4.682 7.2h-2.761a23.658 23.658 0 0 1 3.085-5.674v-.006Zm1.787 5.674a15.107 15.107 0 0 1 2.568-4.838v4.837l-2.568.001Zm2.568-13.436c-4.154-3.961-4.6-10.221-4.612-12.564h4.612v12.564Z"/></g><defs><clipPath id="clip0_407_3167"><path fill="#fff" d="M.5.139h30v30H.5z"/></clipPath></defs></svg>