<svg xmlns="http://www.w3.org/2000/svg" width="30" height="31" fill="none" viewBox="0 0 30 31"><g clip-path="url(#clip0_407_3078)"><path fill="#1A2755" d="M26.896.832c-2.233 0-3.799 2.333-2.79 4.434l-.01.005-2.788 2.79a12.336 12.336 0 0 0-6.826-2.057c-6.845 0-12.414 5.57-12.414 12.414a12.335 12.335 0 0 0 2.057 6.826L.303 29.066a1.034 1.034 0 0 0 1.462 1.463l3.655-3.655c2.265 2.43 5.486 3.958 9.063 3.958 6.845 0 12.413-5.569 12.413-12.414 0-3.577-1.53-6.795-3.957-9.062l2.62-2.62.006-.009c2.102 1.007 4.433-.554 4.433-2.792A3.107 3.107 0 0 0 26.896.832Zm-5.487 9.924a10.221 10.221 0 0 1-2.816 9.883 10.364 10.364 0 0 1-2.683-1.73 12.34 12.34 0 0 0 2.485-10.063 10.351 10.351 0 0 1 3.013 1.91Zm-8.556-2.542a9.497 9.497 0 0 1 3.259 0 10.284 10.284 0 0 1-1.623 9.151 10.248 10.248 0 0 1-1.636-9.15Zm1.63 20.55a10.31 10.31 0 0 1-7.599-3.352l1.09-1.09a1.034 1.034 0 0 0-1.462-1.463l-.882.88c-2.386-3.955-1.852-8.884 1.195-12.25a12.391 12.391 0 0 0-.616 3.825c0 6.852 5.637 12.612 12.795 12.395a10.261 10.261 0 0 1-4.52 1.053l-.001.001Zm8.066-3.883c-1.246.514-2.58.78-3.928.779-5.704 0-10.345-4.641-10.345-10.345a10.366 10.366 0 0 1 2.268-6.458l.026-.01c-1.502 7.907 4.774 15.155 12.878 14.708-.266.464-.567.907-.901 1.325h.002Zm1.212-11.012a10.228 10.228 0 0 1 .63 7.512 9.814 9.814 0 0 1-3.608-.053 12.386 12.386 0 0 0 2.978-7.458v-.001Zm3.136-8.899a1.035 1.035 0 1 1 0-2.07 1.035 1.035 0 0 1 0 2.07Z"/></g><defs><clipPath id="clip0_407_3078"><path fill="#fff" d="M0 .832h30v30H0z"/></clipPath></defs></svg>