<svg xmlns="http://www.w3.org/2000/svg" width="30" height="26" fill="none" viewBox="0 0 30 26"><path fill="#1A2755" fill-rule="evenodd" d="M11.843 3.515c0-.646.159-1.28.46-1.832.303-.551.735-1 1.251-1.295a2.883 2.883 0 0 1 1.673-.38 2.96 2.96 0 0 1 1.605.647c.472.375.841.889 1.068 1.484.227.594.302 1.247.218 1.886a3.718 3.718 0 0 1-.696 1.737 3.17 3.17 0 0 1-1.407 1.078v.758h9.681c5.34 0 5.857 8.294.73 9.218v8.108c0 .141-.025.281-.073.412-.048.13-.12.25-.209.35-.09.1-.196.18-.313.233a.881.881 0 0 1-.37.083H4.533a.88.88 0 0 1-.37-.082.967.967 0 0 1-.312-.233c-.09-.1-.161-.219-.21-.35a1.184 1.184 0 0 1-.073-.411v-8.108c-5.157-.92-4.559-9.223.729-9.223h9.682v-1.7c0-.15.027-.297.078-.435.051-.138.127-.263.221-.368a1.02 1.02 0 0 1 .332-.246.929.929 0 0 1 .39-.086c.221 0 .437-.074.62-.211.184-.138.327-.333.41-.56a1.38 1.38 0 0 0 .063-.72 1.294 1.294 0 0 0-.307-.637 1.087 1.087 0 0 0-.572-.34 1.012 1.012 0 0 0-.646.072 1.154 1.154 0 0 0-.5.46 1.349 1.349 0 0 0-.189.691h-2.036Zm14.575 10.974c2.414-.795 1.89-4.622-.721-4.622h-21.4c-2.603 0-3.143 3.83-.72 4.623.03-.258.145-.495.32-.667a.912.912 0 0 1 .636-.266h20.928a.91.91 0 0 1 .636.266c.176.171.29.408.322.666h-.001Zm-1.923 1.22H5.5v8.14h18.995v-8.14Z" clip-rule="evenodd"/></svg>